# xmcd
#
# Track frame offsets: 
#        150
#        6697
#        17773
#        27574
#        32175
#        41811
#        50446
#        55060
#        68376
#        78417
#        86695
#        100310
#        102359
#        108614
#        120078
#        126888
#        137965
#        149037
#        173555
#        200104
#        206651
#        217727
#        227528
#        232129
#        241765
#        250400
#        255014
#        268330
#        278371
#        286649
#        300264
#        302313
#        308568
#        320032
#
# Disc length: 4352 seconds
#
# Revision: 1
# Processed by: cddbd v1.5.2PL0 Copyright (c) Steve Scherf et al.
# Submitted via: ExactAudioCopy v1.1
#
DISCID=d910fe22
DTITLE=Music K-8 - Vol 20 No4
DYEAR=1900
DGENRE=
TTITLE0=In Like a Lion
TTITLE1=Stewards Of the Earth
TTITLE2=Spring In My Step
TTITLE3=My Peeps
TTITLE4=The Chopin Etude
TTITLE5=Soap and Water
TTITLE6=Be Nice Today
TTITLE7=Danny Boy
TTITLE8=Dinnertime
TTITLE9=Shortnin Bread
TTITLE10=Raisins and Almonds
TTITLE11=The Line Up Song
TTITLE12=If I were A Little Frog
TTITLE13=Mission:  5
TTITLE14=Mission:  5 short version
TTITLE15=Stewards Of the Earth unison with solos
TTITLE16=Stewards of the Earth unison
TTITLE17=Sing a Song of Musical Concepts preview
TTITLE18=Rounds New and Found preview
TTITLE19=In Like a Lion Instr
TTITLE20=Stewards Of the Earth Instr
TTITLE21=Spring In MY Step Instr
TTITLE22=My Peeps  Instr
TTITLE23=The Chopin Etude Instr
TTITLE24=Soap and Water Instr
TTITLE25=Be Nice Today Instr
TTITLE26=Danny Boy  Instr
TTITLE27=Dinnertime Instr
TTITLE28=Shortnin Bread Instr
TTITLE29=Raisins and Almonds Instr
TTITLE30=The Line UP Song Instr
TTITLE31=If I were a  Little Frog Instr
TTITLE32=Mission: 5 Instr
TTITLE33=Mission: 5 Instr short
EXTD=
EXTT0=
EXTT1=
EXTT2=
EXTT3=
EXTT4=
EXTT5=
EXTT6=
EXTT7=
EXTT8=
EXTT9=
EXTT10=
EXTT11=
EXTT12=
EXTT13=
EXTT14=
EXTT15=
EXTT16=
EXTT17=
EXTT18=
EXTT19=
EXTT20=
EXTT21=
EXTT22=
EXTT23=
EXTT24=
EXTT25=
EXTT26=
EXTT27=
EXTT28=
EXTT29=
EXTT30=
EXTT31=
EXTT32=
EXTT33=
PLAYORDER=
